<?xml version="1.0" encoding="utf-8"?>
<svg xmlns="http://www.w3.org/2000/svg" style="margin: auto; background: none; display: block; shape-rendering: auto;" width="280" height="250" preserveAspectRatio="xMidYMid">
<style type="text/css">
  text {
    text-anchor: middle; font-size: 80px; opacity: 0;
  }
</style>
<g style="transform-origin:140px 125px;transform:scale(1)">
<g transform="translate(140,125)">
  <g transform="translate(0,0)"><g class="path" style="opacity: 1; transform-origin: -14.08px -0.751997px; animation: 1s linear -0.44s infinite normal forwards running fade-6594e915-1aec-4342-bfb3-f8208fdf2339;"><path d="M6.56-1.04L6.56-1.04L6.56-1.04Q4.88-2.72 4.88-5.12L4.88-5.12L4.88-5.12Q4.88-7.52 6.56-9.24L6.56-9.24L6.56-9.24Q8.24-10.96 10.64-10.96L10.64-10.96L10.64-10.96Q13.04-10.96 14.76-9.24L14.76-9.24L14.76-9.24Q16.48-7.52 16.48-5.12L16.48-5.12L16.48-5.12Q16.48-2.72 14.76-1.04L14.76-1.04L14.76-1.04Q13.04 0.64 10.64 0.64L10.64 0.64L10.64 0.64Q8.24 0.64 6.56-1.04" fill="#4658ac" stroke="none" stroke-width="none" transform="translate(-24.760009765625,4.408002319335938)" style="fill: rgb(70, 88, 172);"></path></g><g class="path" style="opacity: 1; transform-origin: 4.87999px -0.751997px; animation: 1s linear -0.22s infinite normal forwards running fade-6594e915-1aec-4342-bfb3-f8208fdf2339;"><path d="M25.52-1.04L25.52-1.04L25.52-1.04Q23.84-2.72 23.84-5.12L23.84-5.12L23.84-5.12Q23.84-7.52 25.52-9.24L25.52-9.24L25.52-9.24Q27.20-10.96 29.60-10.96L29.60-10.96L29.60-10.96Q32-10.96 33.72-9.24L33.72-9.24L33.72-9.24Q35.44-7.52 35.44-5.12L35.44-5.12L35.44-5.12Q35.44-2.72 33.72-1.04L33.72-1.04L33.72-1.04Q32 0.64 29.60 0.64L29.60 0.64L29.60 0.64Q27.20 0.64 25.52-1.04" fill="#4658ac" stroke="none" stroke-width="none" transform="translate(-24.760009765625,4.408002319335938)" style="fill: rgb(231, 0, 138);"></path></g><g class="path" style="opacity: 1; transform-origin: 23.84px -0.751997px; animation: 1s linear 0s infinite normal forwards running fade-6594e915-1aec-4342-bfb3-f8208fdf2339;"><path d="M44.48-1.04L44.48-1.04L44.48-1.04Q42.80-2.72 42.80-5.12L42.80-5.12L42.80-5.12Q42.80-7.52 44.48-9.24L44.48-9.24L44.48-9.24Q46.16-10.96 48.56-10.96L48.56-10.96L48.56-10.96Q50.96-10.96 52.68-9.24L52.68-9.24L52.68-9.24Q54.40-7.52 54.40-5.12L54.40-5.12L54.40-5.12Q54.40-2.72 52.68-1.04L52.68-1.04L52.68-1.04Q50.96 0.64 48.56 0.64L48.56 0.64L48.56 0.64Q46.16 0.64 44.48-1.04" fill="#4658ac" stroke="none" stroke-width="none" transform="translate(-24.760009765625,4.408002319335938)" style="fill: rgb(255, 0, 58);"></path></g></g>
</g>
</g>
<style id="fade-6594e915-1aec-4342-bfb3-f8208fdf2339" data-anikit="">@keyframes fade-6594e915-1aec-4342-bfb3-f8208fdf2339
{
  0% {
    animation-timing-function: cubic-bezier(0.2057,0.573,0.3723,0.9184);
    opacity: 1;
  }
  100% {
    opacity: 0;
  }
}</style></svg>